<svg xmlns="http://www.w3.org/2000/svg" width="187.5" viewBox="0 0 187.5 187.5" height="187.5" version="1.0"><defs><clipPath id="a"><path d="M 0 0 L 187 0 L 187 187 L 0 187 Z M 0 0"/></clipPath><clipPath id="b"><path d="M 12 84 L 35 84 L 35 108.722656 L 12 108.722656 Z M 12 84"/></clipPath><clipPath id="c"><path d="M 7.621094 78.722656 L 39.121094 78.722656 L 39.121094 95 L 7.621094 95 Z M 7.621094 78.722656"/></clipPath></defs><g clip-path="url(#a)" fill="#FFF"><path d="M 0 0 L 187.5 0 L 187.5 194.25 L 0 194.25 Z M 0 0"/><path d="M 0 0 L 187.5 0 L 187.5 187.5 L 0 187.5 Z M 0 0"/><path d="M 0 0 L 187.5 0 L 187.5 187.5 L 0 187.5 Z M 0 0"/></g><g clip-path="url(#b)"><path fill="#3B848C" d="M 34.421875 93.96875 Z M 34.421875 93.96875 L 23.375 84.113281 L 12.320312 93.972656 L 12.320312 108.0625 C 12.320312 108.425781 12.609375 108.71875 12.972656 108.71875 L 19.878906 108.71875 L 19.878906 102.542969 C 19.878906 102.179688 20.171875 101.882812 20.53125 101.882812 L 26.207031 101.882812 C 26.570312 101.882812 26.859375 102.179688 26.859375 102.542969 L 26.859375 108.71875 L 33.769531 108.71875 C 34.128906 108.71875 34.421875 108.425781 34.421875 108.0625 Z M 12.320312 93.972656 Z M 12.320312 93.972656"/></g><g clip-path="url(#c)"><path fill="#3B848C" d="M 23.308594 78.722656 L 7.632812 92.703125 L 9.28125 94.582031 L 23.375 82.011719 L 37.460938 94.582031 L 39.109375 92.703125 L 23.433594 78.722656 L 23.375 78.792969 Z M 23.308594 78.722656"/></g><path fill="#3B848C" d="M 12.320312 80.734375 L 16.292969 80.734375 L 16.257812 83.105469 L 12.320312 86.691406 Z M 12.320312 80.734375"/><g fill="#3B848C"><g><g><path d="M 5.03125 -4.78125 L 2.109375 -4.78125 L 2.109375 -3.390625 L 4.796875 -3.390625 L 4.796875 -2.203125 L 2.109375 -2.203125 L 2.109375 0 L 0.59375 0 L 0.59375 -5.96875 L 5.03125 -5.96875 Z M 5.03125 -4.78125" transform="translate(50.147 96.912)"/></g></g></g><g fill="#3B848C"><g><g><path d="M 3.421875 -6.015625 C 4.347656 -6.015625 5.117188 -5.726562 5.734375 -5.15625 C 6.347656 -4.582031 6.65625 -3.863281 6.65625 -3 C 6.65625 -2.125 6.347656 -1.394531 5.734375 -0.8125 C 5.117188 -0.226562 4.347656 0.0625 3.421875 0.0625 C 2.503906 0.0625 1.738281 -0.226562 1.125 -0.8125 C 0.507812 -1.394531 0.203125 -2.125 0.203125 -3 C 0.203125 -3.863281 0.507812 -4.582031 1.125 -5.15625 C 1.738281 -5.726562 2.503906 -6.015625 3.421875 -6.015625 Z M 3.453125 -4.75 C 2.984375 -4.75 2.582031 -4.578125 2.25 -4.234375 C 1.914062 -3.898438 1.75 -3.484375 1.75 -2.984375 C 1.75 -2.484375 1.914062 -2.0625 2.25 -1.71875 C 2.582031 -1.375 2.976562 -1.203125 3.4375 -1.203125 C 3.90625 -1.203125 4.300781 -1.375 4.625 -1.71875 C 4.945312 -2.0625 5.109375 -2.484375 5.109375 -2.984375 C 5.109375 -3.484375 4.945312 -3.898438 4.625 -4.234375 C 4.300781 -4.578125 3.910156 -4.75 3.453125 -4.75 Z M 3.453125 -4.75" transform="translate(56.572 96.912)"/></g></g></g><g fill="#3B848C"><g><g><path d="M 3.671875 -1.921875 L 3.671875 0 L 2.171875 0 L 2.171875 -1.890625 L -0.046875 -5.96875 L 1.46875 -5.96875 L 2.921875 -3.375 L 4.328125 -5.96875 L 5.84375 -5.96875 Z M 3.671875 -1.921875" transform="translate(64.71 96.912)"/></g></g></g><g fill="#3B848C"><g><g><path d="M 5.265625 -4.78125 L 2.109375 -4.78125 L 2.109375 -3.59375 L 4.96875 -3.59375 L 4.96875 -2.390625 L 2.109375 -2.390625 L 2.109375 -1.1875 L 5.359375 -1.1875 L 5.359375 0 L 0.59375 0 L 0.59375 -5.96875 L 5.265625 -5.96875 Z M 5.265625 -4.78125" transform="translate(71.782 96.912)"/></g></g></g><g fill="#3B848C"><g><g><path d="M 4.203125 0 L 3.3125 -1.6875 L 2.109375 -1.6875 L 2.109375 0 L 0.59375 0 L 0.59375 -5.96875 L 3.265625 -5.96875 C 4.054688 -5.96875 4.664062 -5.785156 5.09375 -5.421875 C 5.53125 -5.066406 5.75 -4.554688 5.75 -3.890625 C 5.75 -2.972656 5.390625 -2.332031 4.671875 -1.96875 L 5.921875 0 Z M 2.109375 -2.875 L 3.265625 -2.875 C 3.597656 -2.875 3.851562 -2.957031 4.03125 -3.125 C 4.21875 -3.289062 4.3125 -3.53125 4.3125 -3.84375 C 4.3125 -4.144531 4.21875 -4.375 4.03125 -4.53125 C 3.851562 -4.695312 3.597656 -4.78125 3.265625 -4.78125 L 2.109375 -4.78125 Z M 2.109375 -2.875" transform="translate(78.803 96.912)"/></g></g></g><g fill="#3B848C"><g><g><path d="M 3.390625 -6.015625 C 3.835938 -6.015625 4.273438 -5.925781 4.703125 -5.75 C 5.128906 -5.570312 5.492188 -5.328125 5.796875 -5.015625 L 4.921875 -3.96875 C 4.722656 -4.207031 4.488281 -4.394531 4.21875 -4.53125 C 3.957031 -4.675781 3.691406 -4.75 3.421875 -4.75 C 2.953125 -4.75 2.554688 -4.582031 2.234375 -4.25 C 1.910156 -3.914062 1.75 -3.503906 1.75 -3.015625 C 1.75 -2.515625 1.910156 -2.097656 2.234375 -1.765625 C 2.554688 -1.429688 2.953125 -1.265625 3.421875 -1.265625 C 3.671875 -1.265625 3.929688 -1.328125 4.203125 -1.453125 C 4.472656 -1.578125 4.710938 -1.75 4.921875 -1.96875 L 5.8125 -1.03125 C 5.488281 -0.695312 5.101562 -0.429688 4.65625 -0.234375 C 4.21875 -0.0351562 3.78125 0.0625 3.34375 0.0625 C 2.445312 0.0625 1.695312 -0.226562 1.09375 -0.8125 C 0.5 -1.394531 0.203125 -2.125 0.203125 -3 C 0.203125 -3.863281 0.503906 -4.582031 1.109375 -5.15625 C 1.722656 -5.726562 2.484375 -6.015625 3.390625 -6.015625 Z M 3.390625 -6.015625" transform="translate(89.506 96.912)"/></g></g></g><g fill="#3B848C"><g><g><path d="M 3.421875 -6.015625 C 4.347656 -6.015625 5.117188 -5.726562 5.734375 -5.15625 C 6.347656 -4.582031 6.65625 -3.863281 6.65625 -3 C 6.65625 -2.125 6.347656 -1.394531 5.734375 -0.8125 C 5.117188 -0.226562 4.347656 0.0625 3.421875 0.0625 C 2.503906 0.0625 1.738281 -0.226562 1.125 -0.8125 C 0.507812 -1.394531 0.203125 -2.125 0.203125 -3 C 0.203125 -3.863281 0.507812 -4.582031 1.125 -5.15625 C 1.738281 -5.726562 2.503906 -6.015625 3.421875 -6.015625 Z M 3.453125 -4.75 C 2.984375 -4.75 2.582031 -4.578125 2.25 -4.234375 C 1.914062 -3.898438 1.75 -3.484375 1.75 -2.984375 C 1.75 -2.484375 1.914062 -2.0625 2.25 -1.71875 C 2.582031 -1.375 2.976562 -1.203125 3.4375 -1.203125 C 3.90625 -1.203125 4.300781 -1.375 4.625 -1.71875 C 4.945312 -2.0625 5.109375 -2.484375 5.109375 -2.984375 C 5.109375 -3.484375 4.945312 -3.898438 4.625 -4.234375 C 4.300781 -4.578125 3.910156 -4.75 3.453125 -4.75 Z M 3.453125 -4.75" transform="translate(96.68 96.912)"/></g></g></g><g fill="#3B848C"><g><g><path d="M 2.109375 0 L 0.59375 0 L 0.59375 -5.96875 L 2.109375 -5.96875 Z M 2.109375 0" transform="translate(104.817 96.912)"/></g></g></g><g fill="#3B848C"><g><g><path d="M 6.109375 0 L 4.765625 0 L 2.015625 -3.671875 L 2.015625 0 L 0.59375 0 L 0.59375 -5.96875 L 1.9375 -5.96875 L 4.6875 -2.28125 L 4.6875 -5.96875 L 6.109375 -5.96875 Z M 6.109375 0" transform="translate(108.805 96.912)"/></g></g></g><g fill="#3B848C"><g><g><path d="M 0.59375 -5.96875 L 3.171875 -5.96875 C 4.109375 -5.96875 4.867188 -5.691406 5.453125 -5.140625 C 6.046875 -4.585938 6.34375 -3.867188 6.34375 -2.984375 C 6.34375 -2.097656 6.039062 -1.378906 5.4375 -0.828125 C 4.84375 -0.273438 4.066406 0 3.109375 0 L 0.59375 0 Z M 2.109375 -4.765625 L 2.109375 -1.21875 L 3.203125 -1.21875 C 3.671875 -1.21875 4.050781 -1.378906 4.34375 -1.703125 C 4.644531 -2.023438 4.796875 -2.445312 4.796875 -2.96875 C 4.796875 -3.5 4.640625 -3.929688 4.328125 -4.265625 C 4.015625 -4.597656 3.613281 -4.765625 3.125 -4.765625 Z M 2.109375 -4.765625" transform="translate(120.036 96.912)"/></g></g></g><g fill="#3B848C"><g><g><path d="M 5.265625 -4.78125 L 2.109375 -4.78125 L 2.109375 -3.59375 L 4.96875 -3.59375 L 4.96875 -2.390625 L 2.109375 -2.390625 L 2.109375 -1.1875 L 5.359375 -1.1875 L 5.359375 0 L 0.59375 0 L 0.59375 -5.96875 L 5.265625 -5.96875 Z M 5.265625 -4.78125" transform="translate(127.85 96.912)"/></g></g></g><g fill="#3B848C"><g><g><path d="M 2.890625 -6.046875 C 3.785156 -6.046875 4.570312 -5.820312 5.25 -5.375 L 4.671875 -4.1875 C 4.359375 -4.375 4.019531 -4.523438 3.65625 -4.640625 C 3.300781 -4.753906 3.003906 -4.8125 2.765625 -4.8125 C 2.328125 -4.8125 2.109375 -4.664062 2.109375 -4.375 C 2.109375 -4.1875 2.210938 -4.035156 2.421875 -3.921875 C 2.640625 -3.804688 2.90625 -3.707031 3.21875 -3.625 C 3.53125 -3.539062 3.835938 -3.441406 4.140625 -3.328125 C 4.453125 -3.210938 4.71875 -3.023438 4.9375 -2.765625 C 5.15625 -2.503906 5.265625 -2.175781 5.265625 -1.78125 C 5.265625 -1.195312 5.039062 -0.742188 4.59375 -0.421875 C 4.144531 -0.109375 3.570312 0.046875 2.875 0.046875 C 2.382812 0.046875 1.894531 -0.0351562 1.40625 -0.203125 C 0.925781 -0.367188 0.503906 -0.601562 0.140625 -0.90625 L 0.734375 -2.078125 C 1.035156 -1.816406 1.390625 -1.597656 1.796875 -1.421875 C 2.210938 -1.253906 2.578125 -1.171875 2.890625 -1.171875 C 3.140625 -1.171875 3.332031 -1.210938 3.46875 -1.296875 C 3.601562 -1.390625 3.671875 -1.523438 3.671875 -1.703125 C 3.671875 -1.859375 3.59375 -1.992188 3.4375 -2.109375 C 3.28125 -2.222656 3.082031 -2.304688 2.84375 -2.359375 C 2.613281 -2.410156 2.363281 -2.484375 2.09375 -2.578125 C 1.820312 -2.671875 1.566406 -2.769531 1.328125 -2.875 C 1.097656 -2.976562 0.90625 -3.148438 0.75 -3.390625 C 0.59375 -3.628906 0.515625 -3.910156 0.515625 -4.234375 C 0.515625 -4.785156 0.726562 -5.222656 1.15625 -5.546875 C 1.59375 -5.878906 2.171875 -6.046875 2.890625 -6.046875 Z M 2.890625 -6.046875" transform="translate(134.871 96.912)"/></g></g></g><g fill="#3B848C"><g><g><path d="M 3.390625 -6.015625 C 3.835938 -6.015625 4.273438 -5.925781 4.703125 -5.75 C 5.128906 -5.570312 5.492188 -5.328125 5.796875 -5.015625 L 4.921875 -3.96875 C 4.722656 -4.207031 4.488281 -4.394531 4.21875 -4.53125 C 3.957031 -4.675781 3.691406 -4.75 3.421875 -4.75 C 2.953125 -4.75 2.554688 -4.582031 2.234375 -4.25 C 1.910156 -3.914062 1.75 -3.503906 1.75 -3.015625 C 1.75 -2.515625 1.910156 -2.097656 2.234375 -1.765625 C 2.554688 -1.429688 2.953125 -1.265625 3.421875 -1.265625 C 3.671875 -1.265625 3.929688 -1.328125 4.203125 -1.453125 C 4.472656 -1.578125 4.710938 -1.75 4.921875 -1.96875 L 5.8125 -1.03125 C 5.488281 -0.695312 5.101562 -0.429688 4.65625 -0.234375 C 4.21875 -0.0351562 3.78125 0.0625 3.34375 0.0625 C 2.445312 0.0625 1.695312 -0.226562 1.09375 -0.8125 C 0.5 -1.394531 0.203125 -2.125 0.203125 -3 C 0.203125 -3.863281 0.503906 -4.582031 1.109375 -5.15625 C 1.722656 -5.726562 2.484375 -6.015625 3.390625 -6.015625 Z M 3.390625 -6.015625" transform="translate(144.892 96.912)"/></g></g></g><g fill="#3B848C"><g><g><path d="M 2.109375 0 L 0.59375 0 L 0.59375 -5.96875 L 2.109375 -5.96875 Z M 2.109375 0" transform="translate(152.067 96.912)"/></g></g></g><g fill="#3B848C"><g><g><path d="M 5.265625 -4.78125 L 2.109375 -4.78125 L 2.109375 -3.59375 L 4.96875 -3.59375 L 4.96875 -2.390625 L 2.109375 -2.390625 L 2.109375 -1.1875 L 5.359375 -1.1875 L 5.359375 0 L 0.59375 0 L 0.59375 -5.96875 L 5.265625 -5.96875 Z M 5.265625 -4.78125" transform="translate(156.055 96.912)"/></g></g></g><g fill="#3B848C"><g><g><path d="M 5.96875 -5.96875 L 5.96875 -2.515625 C 5.96875 -1.722656 5.722656 -1.09375 5.234375 -0.625 C 4.742188 -0.164062 4.082031 0.0625 3.25 0.0625 C 2.40625 0.0625 1.734375 -0.164062 1.234375 -0.625 C 0.742188 -1.09375 0.5 -1.722656 0.5 -2.515625 L 0.5 -5.96875 L 2.015625 -5.96875 L 2.015625 -2.515625 C 2.015625 -2.109375 2.128906 -1.785156 2.359375 -1.546875 C 2.585938 -1.316406 2.890625 -1.203125 3.265625 -1.203125 C 3.628906 -1.203125 3.921875 -1.316406 4.140625 -1.546875 C 4.359375 -1.785156 4.46875 -2.109375 4.46875 -2.515625 L 4.46875 -5.96875 Z M 5.96875 -5.96875" transform="translate(163.076 96.912)"/></g></g></g><g fill="#3B848C"><g><g><path d="M 4.0625 -3.125 L 6.203125 0 L 4.390625 0 L 3.09375 -1.90625 L 1.8125 0 L 0.046875 0 L 2.171875 -3.046875 L 0.171875 -5.96875 L 1.9375 -5.96875 L 3.09375 -4.234375 L 4.25 -5.96875 L 6.03125 -5.96875 Z M 4.0625 -3.125" transform="translate(170.813 96.912)"/></g></g></g><path d="M 42.5 108.003906 L 42.5 76.667969 L 41.859375 76.667969 L 41.859375 110.761719 L 42.5 110.761719 L 42.5 108.003906"/></svg>