<svg xmlns="http://www.w3.org/2000/svg" width="375" viewBox="0 0 375 375" height="375" version="1.0"><defs><clipPath id="a"><path d="M 24 168 L 70 168 L 70 217.441406 L 24 217.441406 Z M 24 168"/></clipPath><clipPath id="b"><path d="M 15.238281 157.441406 L 78.988281 157.441406 L 78.988281 190 L 15.238281 190 Z M 15.238281 157.441406"/></clipPath></defs><path fill="#FFF" d="M-37.5 -37.5H412.5V412.5H-37.5z"/><path fill="#FFF" d="M-37.5 -37.5H412.5V412.5H-37.5z"/><path fill="#3B848C" d="M-37.5 -37.5H412.5V412.5H-37.5z"/><g clip-path="url(#a)"><path fill="#FFF" d="M 69.480469 187.941406 Z M 69.480469 187.941406 L 47.121094 168.230469 L 24.75 187.949219 L 24.75 216.125 C 24.75 216.855469 25.339844 217.4375 26.070312 217.4375 L 40.054688 217.4375 L 40.054688 205.082031 C 40.054688 204.355469 40.640625 203.765625 41.371094 203.765625 L 52.859375 203.765625 C 53.589844 203.765625 54.175781 204.355469 54.175781 205.082031 L 54.175781 217.4375 L 68.160156 217.4375 C 68.890625 217.4375 69.476562 216.855469 69.476562 216.125 L 69.476562 187.9375 Z M 24.75 187.949219 Z M 24.75 187.949219"/></g><g clip-path="url(#b)"><path fill="#FFF" d="M 46.992188 157.441406 L 15.261719 185.410156 L 18.605469 189.164062 L 47.121094 164.023438 L 75.632812 189.164062 L 78.96875 185.410156 L 47.246094 157.441406 L 47.121094 157.582031 Z M 46.992188 157.441406"/></g><path fill="#FFF" d="M 24.75 161.46875 L 32.792969 161.46875 L 32.722656 166.210938 L 24.75 173.378906 Z M 24.75 161.46875"/><g fill="#FFF"><g><g><path d="M 10.625 -10.109375 L 4.46875 -10.109375 L 4.46875 -7.1875 L 10.140625 -7.1875 L 10.140625 -4.65625 L 4.46875 -4.65625 L 4.46875 0 L 1.265625 0 L 1.265625 -12.625 L 10.625 -12.625 Z M 10.625 -10.109375" transform="translate(92.811 193.149)"/></g></g></g><g fill="#FFF"><g><g><path d="M 7.25 -12.734375 C 9.21875 -12.734375 10.847656 -12.125 12.140625 -10.90625 C 13.441406 -9.6875 14.09375 -8.160156 14.09375 -6.328125 C 14.09375 -4.492188 13.4375 -2.957031 12.125 -1.71875 C 10.820312 -0.476562 9.195312 0.140625 7.25 0.140625 C 5.300781 0.140625 3.675781 -0.472656 2.375 -1.703125 C 1.082031 -2.941406 0.4375 -4.484375 0.4375 -6.328125 C 0.4375 -8.171875 1.082031 -9.695312 2.375 -10.90625 C 3.675781 -12.125 5.300781 -12.734375 7.25 -12.734375 Z M 7.296875 -10.046875 C 6.304688 -10.046875 5.460938 -9.6875 4.765625 -8.96875 C 4.066406 -8.257812 3.71875 -7.375 3.71875 -6.3125 C 3.71875 -5.257812 4.066406 -4.367188 4.765625 -3.640625 C 5.472656 -2.910156 6.3125 -2.546875 7.28125 -2.546875 C 8.257812 -2.546875 9.085938 -2.910156 9.765625 -3.640625 C 10.453125 -4.367188 10.796875 -5.257812 10.796875 -6.3125 C 10.796875 -7.375 10.453125 -8.257812 9.765625 -8.96875 C 9.085938 -9.6875 8.265625 -10.046875 7.296875 -10.046875 Z M 7.296875 -10.046875" transform="translate(106.42 193.149)"/></g></g></g><g fill="#FFF"><g><g><path d="M 7.78125 -4.078125 L 7.78125 0 L 4.578125 0 L 4.578125 -3.984375 L -0.09375 -12.625 L 3.125 -12.625 L 6.171875 -7.125 L 9.15625 -12.625 L 12.359375 -12.625 Z M 7.78125 -4.078125" transform="translate(123.655 193.149)"/></g></g></g><g fill="#FFF"><g><g><path d="M 11.15625 -10.109375 L 4.46875 -10.109375 L 4.46875 -7.59375 L 10.5 -7.59375 L 10.5 -5.078125 L 4.46875 -5.078125 L 4.46875 -2.53125 L 11.34375 -2.53125 L 11.34375 0 L 1.265625 0 L 1.265625 -12.625 L 11.15625 -12.625 Z M 11.15625 -10.109375" transform="translate(138.635 193.149)"/></g></g></g><g fill="#FFF"><g><g><path d="M 8.875 0 L 7 -3.5625 L 4.46875 -3.5625 L 4.46875 0 L 1.265625 0 L 1.265625 -12.625 L 6.90625 -12.625 C 8.582031 -12.625 9.875 -12.242188 10.78125 -11.484375 C 11.695312 -10.722656 12.15625 -9.640625 12.15625 -8.234375 C 12.15625 -6.285156 11.394531 -4.929688 9.875 -4.171875 L 12.53125 0 Z M 4.46875 -6.078125 L 6.90625 -6.078125 C 7.601562 -6.078125 8.144531 -6.25 8.53125 -6.59375 C 8.914062 -6.945312 9.109375 -7.457031 9.109375 -8.125 C 9.109375 -8.769531 8.914062 -9.257812 8.53125 -9.59375 C 8.144531 -9.9375 7.601562 -10.109375 6.90625 -10.109375 L 4.46875 -10.109375 Z M 4.46875 -6.078125" transform="translate(153.507 193.149)"/></g></g></g><g fill="#FFF"><g><g><path d="M 7.1875 -12.734375 C 8.125 -12.734375 9.046875 -12.539062 9.953125 -12.15625 C 10.859375 -11.78125 11.628906 -11.265625 12.265625 -10.609375 L 10.40625 -8.40625 C 10 -8.914062 9.507812 -9.316406 8.9375 -9.609375 C 8.363281 -9.898438 7.796875 -10.046875 7.234375 -10.046875 C 6.234375 -10.046875 5.394531 -9.691406 4.71875 -8.984375 C 4.050781 -8.285156 3.71875 -7.421875 3.71875 -6.390625 C 3.71875 -5.328125 4.050781 -4.441406 4.71875 -3.734375 C 5.394531 -3.023438 6.234375 -2.671875 7.234375 -2.671875 C 7.765625 -2.671875 8.316406 -2.800781 8.890625 -3.0625 C 9.460938 -3.332031 9.96875 -3.695312 10.40625 -4.15625 L 12.296875 -2.171875 C 11.609375 -1.472656 10.796875 -0.910156 9.859375 -0.484375 C 8.929688 -0.0664062 8.003906 0.140625 7.078125 0.140625 C 5.171875 0.140625 3.585938 -0.476562 2.328125 -1.71875 C 1.066406 -2.957031 0.4375 -4.503906 0.4375 -6.359375 C 0.4375 -8.171875 1.078125 -9.6875 2.359375 -10.90625 C 3.648438 -12.125 5.257812 -12.734375 7.1875 -12.734375 Z M 7.1875 -12.734375" transform="translate(176.175 193.149)"/></g></g></g><g fill="#FFF"><g><g><path d="M 7.25 -12.734375 C 9.21875 -12.734375 10.847656 -12.125 12.140625 -10.90625 C 13.441406 -9.6875 14.09375 -8.160156 14.09375 -6.328125 C 14.09375 -4.492188 13.4375 -2.957031 12.125 -1.71875 C 10.820312 -0.476562 9.195312 0.140625 7.25 0.140625 C 5.300781 0.140625 3.675781 -0.472656 2.375 -1.703125 C 1.082031 -2.941406 0.4375 -4.484375 0.4375 -6.328125 C 0.4375 -8.171875 1.082031 -9.695312 2.375 -10.90625 C 3.675781 -12.125 5.300781 -12.734375 7.25 -12.734375 Z M 7.296875 -10.046875 C 6.304688 -10.046875 5.460938 -9.6875 4.765625 -8.96875 C 4.066406 -8.257812 3.71875 -7.375 3.71875 -6.3125 C 3.71875 -5.257812 4.066406 -4.367188 4.765625 -3.640625 C 5.472656 -2.910156 6.3125 -2.546875 7.28125 -2.546875 C 8.257812 -2.546875 9.085938 -2.910156 9.765625 -3.640625 C 10.453125 -4.367188 10.796875 -5.257812 10.796875 -6.3125 C 10.796875 -7.375 10.453125 -8.257812 9.765625 -8.96875 C 9.085938 -9.6875 8.265625 -10.046875 7.296875 -10.046875 Z M 7.296875 -10.046875" transform="translate(191.372 193.149)"/></g></g></g><g fill="#FFF"><g><g><path d="M 4.46875 0 L 1.265625 0 L 1.265625 -12.625 L 4.46875 -12.625 Z M 4.46875 0" transform="translate(208.608 193.149)"/></g></g></g><g fill="#FFF"><g><g><path d="M 12.921875 0 L 10.09375 0 L 4.28125 -7.78125 L 4.28125 0 L 1.265625 0 L 1.265625 -12.625 L 4.09375 -12.625 L 9.921875 -4.84375 L 9.921875 -12.625 L 12.921875 -12.625 Z M 12.921875 0" transform="translate(217.054 193.149)"/></g></g></g><g fill="#FFF"><g><g><path d="M 1.265625 -12.625 L 6.703125 -12.625 C 8.679688 -12.625 10.289062 -12.039062 11.53125 -10.875 C 12.78125 -9.707031 13.40625 -8.1875 13.40625 -6.3125 C 13.40625 -4.445312 12.773438 -2.925781 11.515625 -1.75 C 10.253906 -0.582031 8.601562 0 6.5625 0 L 1.265625 0 Z M 4.46875 -10.0625 L 4.46875 -2.5625 L 6.765625 -2.5625 C 7.753906 -2.5625 8.5625 -2.90625 9.1875 -3.59375 C 9.820312 -4.289062 10.140625 -5.191406 10.140625 -6.296875 C 10.140625 -7.398438 9.804688 -8.300781 9.140625 -9 C 8.484375 -9.707031 7.644531 -10.0625 6.625 -10.0625 Z M 4.46875 -10.0625" transform="translate(240.842 193.149)"/></g></g></g><g fill="#FFF"><g><g><path d="M 11.15625 -10.109375 L 4.46875 -10.109375 L 4.46875 -7.59375 L 10.5 -7.59375 L 10.5 -5.078125 L 4.46875 -5.078125 L 4.46875 -2.53125 L 11.34375 -2.53125 L 11.34375 0 L 1.265625 0 L 1.265625 -12.625 L 11.15625 -12.625 Z M 11.15625 -10.109375" transform="translate(257.392 193.149)"/></g></g></g><g fill="#FFF"><g><g><path d="M 6.125 -12.78125 C 8.007812 -12.78125 9.664062 -12.3125 11.09375 -11.375 L 9.890625 -8.859375 C 9.222656 -9.242188 8.507812 -9.554688 7.75 -9.796875 C 7 -10.046875 6.363281 -10.171875 5.84375 -10.171875 C 4.914062 -10.171875 4.453125 -9.867188 4.453125 -9.265625 C 4.453125 -8.859375 4.679688 -8.535156 5.140625 -8.296875 C 5.597656 -8.054688 6.15625 -7.847656 6.8125 -7.671875 C 7.46875 -7.503906 8.125 -7.296875 8.78125 -7.046875 C 9.4375 -6.796875 9.992188 -6.394531 10.453125 -5.84375 C 10.910156 -5.289062 11.140625 -4.59375 11.140625 -3.75 C 11.140625 -2.539062 10.660156 -1.59375 9.703125 -0.90625 C 8.753906 -0.226562 7.546875 0.109375 6.078125 0.109375 C 5.035156 0.109375 4 -0.0664062 2.96875 -0.421875 C 1.945312 -0.785156 1.0625 -1.28125 0.3125 -1.90625 L 1.546875 -4.390625 C 2.191406 -3.835938 2.945312 -3.378906 3.8125 -3.015625 C 4.675781 -2.660156 5.445312 -2.484375 6.125 -2.484375 C 6.632812 -2.484375 7.035156 -2.578125 7.328125 -2.765625 C 7.617188 -2.953125 7.765625 -3.226562 7.765625 -3.59375 C 7.765625 -3.9375 7.597656 -4.222656 7.265625 -4.453125 C 6.929688 -4.691406 6.515625 -4.867188 6.015625 -4.984375 C 5.523438 -5.097656 4.992188 -5.25 4.421875 -5.4375 C 3.847656 -5.632812 3.3125 -5.847656 2.8125 -6.078125 C 2.320312 -6.304688 1.910156 -6.671875 1.578125 -7.171875 C 1.242188 -7.671875 1.078125 -8.269531 1.078125 -8.96875 C 1.078125 -10.125 1.535156 -11.046875 2.453125 -11.734375 C 3.378906 -12.429688 4.601562 -12.78125 6.125 -12.78125 Z M 6.125 -12.78125" transform="translate(272.264 193.149)"/></g></g></g><g fill="#FFF"><g><g><path d="M 7.1875 -12.734375 C 8.125 -12.734375 9.046875 -12.539062 9.953125 -12.15625 C 10.859375 -11.78125 11.628906 -11.265625 12.265625 -10.609375 L 10.40625 -8.40625 C 10 -8.914062 9.507812 -9.316406 8.9375 -9.609375 C 8.363281 -9.898438 7.796875 -10.046875 7.234375 -10.046875 C 6.234375 -10.046875 5.394531 -9.691406 4.71875 -8.984375 C 4.050781 -8.285156 3.71875 -7.421875 3.71875 -6.390625 C 3.71875 -5.328125 4.050781 -4.441406 4.71875 -3.734375 C 5.394531 -3.023438 6.234375 -2.671875 7.234375 -2.671875 C 7.765625 -2.671875 8.316406 -2.800781 8.890625 -3.0625 C 9.460938 -3.332031 9.96875 -3.695312 10.40625 -4.15625 L 12.296875 -2.171875 C 11.609375 -1.472656 10.796875 -0.910156 9.859375 -0.484375 C 8.929688 -0.0664062 8.003906 0.140625 7.078125 0.140625 C 5.171875 0.140625 3.585938 -0.476562 2.328125 -1.71875 C 1.066406 -2.957031 0.4375 -4.503906 0.4375 -6.359375 C 0.4375 -8.171875 1.078125 -9.6875 2.359375 -10.90625 C 3.648438 -12.125 5.257812 -12.734375 7.1875 -12.734375 Z M 7.1875 -12.734375" transform="translate(293.489 193.149)"/></g></g></g><g fill="#FFF"><g><g><path d="M 4.46875 0 L 1.265625 0 L 1.265625 -12.625 L 4.46875 -12.625 Z M 4.46875 0" transform="translate(308.685 193.149)"/></g></g></g><g fill="#FFF"><g><g><path d="M 11.15625 -10.109375 L 4.46875 -10.109375 L 4.46875 -7.59375 L 10.5 -7.59375 L 10.5 -5.078125 L 4.46875 -5.078125 L 4.46875 -2.53125 L 11.34375 -2.53125 L 11.34375 0 L 1.265625 0 L 1.265625 -12.625 L 11.15625 -12.625 Z M 11.15625 -10.109375" transform="translate(317.132 193.149)"/></g></g></g><g fill="#FFF"><g><g><path d="M 12.625 -12.625 L 12.625 -5.3125 C 12.625 -3.632812 12.109375 -2.304688 11.078125 -1.328125 C 10.046875 -0.347656 8.644531 0.140625 6.875 0.140625 C 5.09375 0.140625 3.675781 -0.347656 2.625 -1.328125 C 1.570312 -2.304688 1.046875 -3.632812 1.046875 -5.3125 L 1.046875 -12.625 L 4.265625 -12.625 L 4.265625 -5.3125 C 4.265625 -4.46875 4.503906 -3.796875 4.984375 -3.296875 C 5.472656 -2.796875 6.109375 -2.546875 6.890625 -2.546875 C 7.660156 -2.546875 8.273438 -2.789062 8.734375 -3.28125 C 9.203125 -3.78125 9.4375 -4.457031 9.4375 -5.3125 L 9.4375 -12.625 Z M 12.625 -12.625" transform="translate(332.004 193.149)"/></g></g></g><g fill="#FFF"><g><g><path d="M 8.59375 -6.609375 L 13.125 0 L 9.28125 0 L 6.546875 -4.03125 L 3.828125 0 L 0.09375 0 L 4.609375 -6.453125 L 0.375 -12.625 L 4.109375 -12.625 L 6.546875 -8.953125 L 8.984375 -12.625 L 12.765625 -12.625 Z M 8.59375 -6.609375" transform="translate(348.391 193.149)"/></g></g></g><path d="M 85 216.007812 L 85 153.335938 L 83.714844 153.335938 L 83.714844 221.523438 L 85 221.523438 L 85 216.007812"/></svg>