<svg xmlns="http://www.w3.org/2000/svg" width="375" viewBox="0 0 375 375" height="375" version="1.0"><defs><clipPath id="a"><path d="M 24 168 L 70 168 L 70 217.441406 L 24 217.441406 Z M 24 168"/></clipPath><clipPath id="b"><path d="M 15.238281 157.441406 L 78.988281 157.441406 L 78.988281 190 L 15.238281 190 Z M 15.238281 157.441406"/></clipPath></defs><path fill="#FFF" d="M-37.5 -37.5H412.5V412.5H-37.5z"/><path fill="#FFF" d="M-37.5 -37.5H412.5V412.5H-37.5z"/><path fill="#FFF" d="M-37.5 -37.5H412.5V412.5H-37.5z"/><g clip-path="url(#a)"><path d="M 69.480469 187.941406 Z M 69.480469 187.941406 L 47.121094 168.230469 L 24.75 187.949219 L 24.75 216.125 C 24.75 216.855469 25.339844 217.4375 26.070312 217.4375 L 40.054688 217.4375 L 40.054688 205.082031 C 40.054688 204.355469 40.640625 203.765625 41.371094 203.765625 L 52.859375 203.765625 C 53.589844 203.765625 54.175781 204.355469 54.175781 205.082031 L 54.175781 217.4375 L 68.160156 217.4375 C 68.890625 217.4375 69.476562 216.855469 69.476562 216.125 L 69.476562 187.9375 Z M 24.75 187.949219 Z M 24.75 187.949219"/></g><g clip-path="url(#b)"><path d="M 46.992188 157.441406 L 15.261719 185.410156 L 18.605469 189.164062 L 47.121094 164.023438 L 75.632812 189.164062 L 78.96875 185.410156 L 47.246094 157.441406 L 47.121094 157.582031 Z M 46.992188 157.441406"/></g><path d="M 24.75 161.46875 L 32.792969 161.46875 L 32.722656 166.210938 L 24.75 173.378906 Z M 24.75 161.46875"/><g><g><g><path d="M 10.046875 -9.546875 L 4.234375 -9.546875 L 4.234375 -6.78125 L 9.578125 -6.78125 L 9.578125 -4.390625 L 4.234375 -4.390625 L 4.234375 0 L 1.1875 0 L 1.1875 -11.9375 L 10.046875 -11.9375 Z M 10.046875 -9.546875" transform="translate(100.216 193.662)"/></g></g></g><g><g><g><path d="M 6.859375 -12.03125 C 8.703125 -12.03125 10.238281 -11.453125 11.46875 -10.296875 C 12.695312 -9.148438 13.3125 -7.710938 13.3125 -5.984375 C 13.3125 -4.242188 12.691406 -2.785156 11.453125 -1.609375 C 10.222656 -0.441406 8.6875 0.140625 6.84375 0.140625 C 5.007812 0.140625 3.476562 -0.441406 2.25 -1.609375 C 1.019531 -2.773438 0.40625 -4.234375 0.40625 -5.984375 C 0.40625 -7.722656 1.019531 -9.164062 2.25 -10.3125 C 3.476562 -11.457031 5.015625 -12.03125 6.859375 -12.03125 Z M 6.890625 -9.5 C 5.953125 -9.5 5.15625 -9.160156 4.5 -8.484375 C 3.84375 -7.804688 3.515625 -6.96875 3.515625 -5.96875 C 3.515625 -4.96875 3.84375 -4.125 4.5 -3.4375 C 5.164062 -2.75 5.957031 -2.40625 6.875 -2.40625 C 7.800781 -2.40625 8.582031 -2.75 9.21875 -3.4375 C 9.863281 -4.125 10.1875 -4.96875 10.1875 -5.96875 C 10.1875 -6.96875 9.863281 -7.804688 9.21875 -8.484375 C 8.582031 -9.160156 7.804688 -9.5 6.890625 -9.5 Z M 6.890625 -9.5" transform="translate(113.074 193.662)"/></g></g></g><g><g><g><path d="M 7.34375 -3.859375 L 7.34375 0 L 4.328125 0 L 4.328125 -3.765625 L -0.078125 -11.9375 L 2.953125 -11.9375 L 5.828125 -6.734375 L 8.640625 -11.9375 L 11.671875 -11.9375 Z M 7.34375 -3.859375" transform="translate(129.36 193.662)"/></g></g></g><g><g><g><path d="M 10.53125 -9.546875 L 4.234375 -9.546875 L 4.234375 -7.171875 L 9.921875 -7.171875 L 9.921875 -4.796875 L 4.234375 -4.796875 L 4.234375 -2.390625 L 10.71875 -2.390625 L 10.71875 0 L 1.1875 0 L 1.1875 -11.9375 L 10.53125 -11.9375 Z M 10.53125 -9.546875" transform="translate(143.515 193.662)"/></g></g></g><g><g><g><path d="M 8.390625 0 L 6.609375 -3.359375 L 4.234375 -3.359375 L 4.234375 0 L 1.1875 0 L 1.1875 -11.9375 L 6.53125 -11.9375 C 8.113281 -11.9375 9.332031 -11.570312 10.1875 -10.84375 C 11.050781 -10.125 11.484375 -9.097656 11.484375 -7.765625 C 11.484375 -5.929688 10.765625 -4.65625 9.328125 -3.9375 L 11.828125 0 Z M 4.234375 -5.75 L 6.53125 -5.75 C 7.1875 -5.75 7.695312 -5.910156 8.0625 -6.234375 C 8.425781 -6.566406 8.609375 -7.046875 8.609375 -7.671875 C 8.609375 -8.285156 8.425781 -8.75 8.0625 -9.0625 C 7.695312 -9.382812 7.1875 -9.546875 6.53125 -9.546875 L 4.234375 -9.546875 Z M 4.234375 -5.75" transform="translate(157.567 193.662)"/></g></g></g><g><g><g><path d="M 6.78125 -12.03125 C 7.664062 -12.03125 8.535156 -11.847656 9.390625 -11.484375 C 10.253906 -11.117188 10.988281 -10.632812 11.59375 -10.03125 L 9.84375 -7.9375 C 9.445312 -8.414062 8.976562 -8.796875 8.4375 -9.078125 C 7.90625 -9.359375 7.367188 -9.5 6.828125 -9.5 C 5.890625 -9.5 5.101562 -9.164062 4.46875 -8.5 C 3.832031 -7.832031 3.515625 -7.007812 3.515625 -6.03125 C 3.515625 -5.03125 3.832031 -4.191406 4.46875 -3.515625 C 5.101562 -2.847656 5.890625 -2.515625 6.828125 -2.515625 C 7.328125 -2.515625 7.847656 -2.640625 8.390625 -2.890625 C 8.929688 -3.140625 9.414062 -3.484375 9.84375 -3.921875 L 11.609375 -2.046875 C 10.960938 -1.390625 10.195312 -0.859375 9.3125 -0.453125 C 8.4375 -0.0546875 7.5625 0.140625 6.6875 0.140625 C 4.882812 0.140625 3.382812 -0.441406 2.1875 -1.609375 C 1 -2.785156 0.40625 -4.25 0.40625 -6 C 0.40625 -7.71875 1.015625 -9.148438 2.234375 -10.296875 C 3.453125 -11.453125 4.96875 -12.03125 6.78125 -12.03125 Z M 6.78125 -12.03125" transform="translate(178.987 193.662)"/></g></g></g><g><g><g><path d="M 6.859375 -12.03125 C 8.703125 -12.03125 10.238281 -11.453125 11.46875 -10.296875 C 12.695312 -9.148438 13.3125 -7.710938 13.3125 -5.984375 C 13.3125 -4.242188 12.691406 -2.785156 11.453125 -1.609375 C 10.222656 -0.441406 8.6875 0.140625 6.84375 0.140625 C 5.007812 0.140625 3.476562 -0.441406 2.25 -1.609375 C 1.019531 -2.773438 0.40625 -4.234375 0.40625 -5.984375 C 0.40625 -7.722656 1.019531 -9.164062 2.25 -10.3125 C 3.476562 -11.457031 5.015625 -12.03125 6.859375 -12.03125 Z M 6.890625 -9.5 C 5.953125 -9.5 5.15625 -9.160156 4.5 -8.484375 C 3.84375 -7.804688 3.515625 -6.96875 3.515625 -5.96875 C 3.515625 -4.96875 3.84375 -4.125 4.5 -3.4375 C 5.164062 -2.75 5.957031 -2.40625 6.875 -2.40625 C 7.800781 -2.40625 8.582031 -2.75 9.21875 -3.4375 C 9.863281 -4.125 10.1875 -4.96875 10.1875 -5.96875 C 10.1875 -6.96875 9.863281 -7.804688 9.21875 -8.484375 C 8.582031 -9.160156 7.804688 -9.5 6.890625 -9.5 Z M 6.890625 -9.5" transform="translate(193.346 193.662)"/></g></g></g><g><g><g><path d="M 4.234375 0 L 1.1875 0 L 1.1875 -11.9375 L 4.234375 -11.9375 Z M 4.234375 0" transform="translate(209.632 193.662)"/></g></g></g><g><g><g><path d="M 12.203125 0 L 9.53125 0 L 4.046875 -7.34375 L 4.046875 0 L 1.1875 0 L 1.1875 -11.9375 L 3.875 -11.9375 L 9.375 -4.5625 L 9.375 -11.9375 L 12.203125 -11.9375 Z M 12.203125 0" transform="translate(217.613 193.662)"/></g></g></g><g><g><g><path d="M 1.1875 -11.9375 L 6.328125 -11.9375 C 8.203125 -11.9375 9.726562 -11.382812 10.90625 -10.28125 C 12.082031 -9.175781 12.671875 -7.738281 12.671875 -5.96875 C 12.671875 -4.207031 12.070312 -2.769531 10.875 -1.65625 C 9.6875 -0.550781 8.128906 0 6.203125 0 L 1.1875 0 Z M 4.234375 -9.515625 L 4.234375 -2.421875 L 6.390625 -2.421875 C 7.328125 -2.421875 8.09375 -2.742188 8.6875 -3.390625 C 9.28125 -4.046875 9.578125 -4.894531 9.578125 -5.9375 C 9.578125 -6.988281 9.265625 -7.847656 8.640625 -8.515625 C 8.015625 -9.179688 7.21875 -9.515625 6.25 -9.515625 Z M 4.234375 -9.515625" transform="translate(240.09 193.662)"/></g></g></g><g><g><g><path d="M 10.53125 -9.546875 L 4.234375 -9.546875 L 4.234375 -7.171875 L 9.921875 -7.171875 L 9.921875 -4.796875 L 4.234375 -4.796875 L 4.234375 -2.390625 L 10.71875 -2.390625 L 10.71875 0 L 1.1875 0 L 1.1875 -11.9375 L 10.53125 -11.9375 Z M 10.53125 -9.546875" transform="translate(255.729 193.662)"/></g></g></g><g><g><g><path d="M 5.78125 -12.0625 C 7.5625 -12.0625 9.128906 -11.617188 10.484375 -10.734375 L 9.34375 -8.375 C 8.71875 -8.738281 8.046875 -9.035156 7.328125 -9.265625 C 6.609375 -9.492188 6.003906 -9.609375 5.515625 -9.609375 C 4.640625 -9.609375 4.203125 -9.320312 4.203125 -8.75 C 4.203125 -8.375 4.414062 -8.070312 4.84375 -7.84375 C 5.28125 -7.613281 5.804688 -7.414062 6.421875 -7.25 C 7.046875 -7.082031 7.664062 -6.882812 8.28125 -6.65625 C 8.90625 -6.425781 9.429688 -6.046875 9.859375 -5.515625 C 10.296875 -4.992188 10.515625 -4.335938 10.515625 -3.546875 C 10.515625 -2.398438 10.066406 -1.503906 9.171875 -0.859375 C 8.273438 -0.210938 7.132812 0.109375 5.75 0.109375 C 4.757812 0.109375 3.78125 -0.0625 2.8125 -0.40625 C 1.84375 -0.75 1.003906 -1.21875 0.296875 -1.8125 L 1.46875 -4.140625 C 2.070312 -3.617188 2.78125 -3.191406 3.59375 -2.859375 C 4.414062 -2.523438 5.144531 -2.359375 5.78125 -2.359375 C 6.269531 -2.359375 6.648438 -2.441406 6.921875 -2.609375 C 7.191406 -2.785156 7.328125 -3.046875 7.328125 -3.390625 C 7.328125 -3.722656 7.171875 -4 6.859375 -4.21875 C 6.546875 -4.4375 6.15625 -4.597656 5.6875 -4.703125 C 5.226562 -4.816406 4.722656 -4.960938 4.171875 -5.140625 C 3.628906 -5.328125 3.125 -5.523438 2.65625 -5.734375 C 2.1875 -5.953125 1.796875 -6.296875 1.484375 -6.765625 C 1.171875 -7.242188 1.015625 -7.8125 1.015625 -8.46875 C 1.015625 -9.5625 1.445312 -10.429688 2.3125 -11.078125 C 3.1875 -11.734375 4.34375 -12.0625 5.78125 -12.0625 Z M 5.78125 -12.0625" transform="translate(269.78 193.662)"/></g></g></g><g><g><g><path d="M 6.78125 -12.03125 C 7.664062 -12.03125 8.535156 -11.847656 9.390625 -11.484375 C 10.253906 -11.117188 10.988281 -10.632812 11.59375 -10.03125 L 9.84375 -7.9375 C 9.445312 -8.414062 8.976562 -8.796875 8.4375 -9.078125 C 7.90625 -9.359375 7.367188 -9.5 6.828125 -9.5 C 5.890625 -9.5 5.101562 -9.164062 4.46875 -8.5 C 3.832031 -7.832031 3.515625 -7.007812 3.515625 -6.03125 C 3.515625 -5.03125 3.832031 -4.191406 4.46875 -3.515625 C 5.101562 -2.847656 5.890625 -2.515625 6.828125 -2.515625 C 7.328125 -2.515625 7.847656 -2.640625 8.390625 -2.890625 C 8.929688 -3.140625 9.414062 -3.484375 9.84375 -3.921875 L 11.609375 -2.046875 C 10.960938 -1.390625 10.195312 -0.859375 9.3125 -0.453125 C 8.4375 -0.0546875 7.5625 0.140625 6.6875 0.140625 C 4.882812 0.140625 3.382812 -0.441406 2.1875 -1.609375 C 1 -2.785156 0.40625 -4.25 0.40625 -6 C 0.40625 -7.71875 1.015625 -9.148438 2.234375 -10.296875 C 3.453125 -11.453125 4.96875 -12.03125 6.78125 -12.03125 Z M 6.78125 -12.03125" transform="translate(289.836 193.662)"/></g></g></g><g><g><g><path d="M 4.234375 0 L 1.1875 0 L 1.1875 -11.9375 L 4.234375 -11.9375 Z M 4.234375 0" transform="translate(304.195 193.662)"/></g></g></g><g><g><g><path d="M 10.53125 -9.546875 L 4.234375 -9.546875 L 4.234375 -7.171875 L 9.921875 -7.171875 L 9.921875 -4.796875 L 4.234375 -4.796875 L 4.234375 -2.390625 L 10.71875 -2.390625 L 10.71875 0 L 1.1875 0 L 1.1875 -11.9375 L 10.53125 -11.9375 Z M 10.53125 -9.546875" transform="translate(312.176 193.662)"/></g></g></g><g><g><g><path d="M 11.9375 -11.9375 L 11.9375 -5.015625 C 11.9375 -3.429688 11.445312 -2.175781 10.46875 -1.25 C 9.488281 -0.320312 8.164062 0.140625 6.5 0.140625 C 4.8125 0.140625 3.46875 -0.320312 2.46875 -1.25 C 1.476562 -2.175781 0.984375 -3.429688 0.984375 -5.015625 L 0.984375 -11.9375 L 4.015625 -11.9375 L 4.015625 -5.015625 C 4.015625 -4.210938 4.242188 -3.578125 4.703125 -3.109375 C 5.171875 -2.640625 5.773438 -2.40625 6.515625 -2.40625 C 7.242188 -2.40625 7.828125 -2.632812 8.265625 -3.09375 C 8.703125 -3.5625 8.921875 -4.203125 8.921875 -5.015625 L 8.921875 -11.9375 Z M 11.9375 -11.9375" transform="translate(326.229 193.662)"/></g></g></g><g><g><g><path d="M 8.109375 -6.234375 L 12.390625 0 L 8.765625 0 L 6.1875 -3.796875 L 3.609375 0 L 0.078125 0 L 4.34375 -6.109375 L 0.359375 -11.9375 L 3.890625 -11.9375 L 6.1875 -8.453125 L 8.484375 -11.9375 L 12.046875 -11.9375 Z M 8.109375 -6.234375" transform="translate(341.713 193.662)"/></g></g></g><path d="M 85 216.007812 L 85 153.335938 L 83.714844 153.335938 L 83.714844 221.523438 L 85 221.523438 L 85 216.007812"/></svg>